<svg xmlns="http://www.w3.org/2000/svg" xmlns:xlink="http://www.w3.org/1999/xlink" version="1.1" id="Layer_1" x="0px" y="0px" width="100px" height="100px" viewBox="0 0 100 100" enable-background="new 0 0 100 100" xml:space="preserve">
<g>
	<g>
		<polygon points="36.703,11.011 9.638,26.636 9.638,38.757 36.703,23.131 63.767,38.757 63.767,26.636   " style="stroke:#D2EDFF; fill:#D2EDFF;"/>
	</g>
	<g>
		<polygon points="77.083,18.872 50.018,3.247 39.522,9.307 66.586,24.932 66.586,56.184 77.083,50.124   "  style="stroke:#ffffff; fill:#ffffff;" />
	</g>
	<g>
		<polygon points="90.362,58.092 90.362,26.84 79.866,20.78 79.866,52.031 52.802,67.658 63.298,73.719   " style="stroke:#F3F2EB; fill:#F3F2EB;" />
	</g>
	<g>
		<polygon points="63.298,89.092 36.233,73.467 36.233,61.348 63.298,76.973 90.362,61.348 90.362,73.467   "  style="stroke:#dad8B0; fill:#dad8B0;" />
	</g>
	<g>
		<polygon points="23.01,81.127 23.011,49.876 33.507,43.816 33.507,75.068 60.571,90.693 50.075,96.754   " style="stroke:#B0AE8D; fill:#B0AE8D;" />
	</g>
	<g>
		<polygon points="9.638,42.012 36.703,26.386 47.198,32.446 20.134,48.072 20.134,79.324 9.638,73.264   " style="stroke:#655300; fill:#655300;"/>
	</g>
</g>
</svg>
